<svg xmlns="http://www.w3.org/2000/svg" version="1.1" xmlns:xlink="http://www.w3.org/1999/xlink" xmlns:svgjs="http://svgjs.com/svgjs" width="512" height="512" x="0" y="0" viewBox="0 0 512.001 512.001" style="enable-background:new 0 0 512 512" xml:space="preserve" class="">
	<g>
		<path d="M352.276 33.264 201.118 274.977l151.158 66.872 52.244-146.283z" style="" fill="#e65a5b" data-original="#e65a5b">
		</path>
		<path d="M352.276 33.264v308.585l151.158-66.872z" style="" fill="#ff6465" data-original="#ff6465">
		</path>
		<path d="M163.661 107.862 8.566 177.367l41.571 86.641 66.042 25.522 119.137-61.134 35.956-51.029z" style="" fill="#a6e7ff" data-original="#a6e7ff" class="">
		</path>
		<path d="M116.179 246.872 8.566 177.367v166.007l107.613 69.506 46.528-97.652z" style="" fill="#6ab2cc" data-original="#6ab2cc">
		</path>
		<path d="M271.272 343.374V177.367l-155.093 69.505V412.88z" style="" fill="#7dd2f0" data-original="#7dd2f0">
		</path>
		<circle cx="308.015" cy="352.227" r="126.511" style="" fill="#ffd782" data-original="#ffd782">
		</circle>
		<path d="M204.34 375.066c0-69.873 56.643-126.516 126.516-126.516 29.115 0 55.927 9.84 77.306 26.368-23.138-29.931-59.39-49.21-100.148-49.21-69.873 0-126.516 56.643-126.516 126.516 0 40.758 19.279 77.01 49.21 100.148-16.527-21.381-26.368-48.193-26.368-77.306z" style="opacity:0.1;enable-background:new ;" fill="#000000" data-original="#000000" class="">
		</path>
		<path d="M506.9 282.799a8.568 8.568 0 0 0 3.798-12.376L438.929 155.66a8.564 8.564 0 0 0-11.804-2.721 8.564 8.564 0 0 0-2.72 11.804l66.529 106.386-59.414 26.284a134.94 134.94 0 0 0-70.677-69.556V63.105l44.747 71.552a8.566 8.566 0 1 0 14.524-9.083L359.539 28.71c-.063-.102-.144-.185-.211-.283-1.624-2.373-4.411-3.775-7.281-3.716-2.703.055-5.293 1.488-6.817 3.712-.069.099-.151.185-.215.288l-82.886 132.542-93.82-60.597a8.566 8.566 0 0 0-8.151-.621L5.064 169.54C2.042 170.892 0 174.043 0 177.355v52.336c0 4.731 3.835 8.566 8.566 8.566s8.566-3.835 8.566-8.566v-36.607l90.481 58.44v145.614l-90.481-58.44v-74.744a8.566 8.566 0 1 0-17.132 0v79.408a8.566 8.566 0 0 0 3.919 7.195l107.613 69.505a8.787 8.787 0 0 0 3.888 1.336 8.66 8.66 0 0 0 4.037-.628c.074-.031.151-.054.225-.087l59.833-26.814c17.601 54.16 68.547 93.422 128.5 93.422 74.485 0 135.082-60.598 135.082-135.082 0-13.44-1.983-26.423-5.653-38.684l69.456-30.726zM343.71 63.105V221.91c-.352-.096-.706-.177-1.058-.271-11.285-3.005-22.962-4.509-34.639-4.509-9.458 0-18.924.988-28.176 2.947v-42.722c0-2.469-1.149-4.936-3.029-6.535a7.303 7.303 0 0 0-.305-.247L343.71 63.105zM116.919 237.141l-90.453-58.422 136.452-61.151 90.124 58.21-.312.499-135.811 60.864zm191.095 233.021c-26.629 0-52.795-9.191-73.584-25.831-20.486-16.398-35.282-39.575-41.252-65.151a118.907 118.907 0 0 1-3.115-26.967c0-21.134 5.666-41.874 16.385-59.98a8.568 8.568 0 0 0-3.013-11.739 8.567 8.567 0 0 0-11.734 3.008c-12.279 20.743-18.769 44.503-18.769 68.711 0 8.177.745 16.336 2.21 24.379.026.144.048.289.075.433l-50.472 22.619V252.409l137.962-61.828v34.332c-17.874 6.355-34.345 16.483-48.365 29.98a8.565 8.565 0 0 0 1.816 13.68 8.572 8.572 0 0 0 10.07-1.334c13.381-12.881 29.782-22.521 47.459-27.896 24.449-7.191 50.971-6.674 74.937 2.124 45.092 16.587 77.341 59.971 77.341 110.746-.001 65.037-52.913 117.949-117.951 117.949z" fill="#000000" data-original="#000000" class="">
		</path>
	</g>
</svg>
