<svg version="1.1" xmlns="http://www.w3.org/2000/svg" xmlns:xlink="http://www.w3.org/1999/xlink" preserveAspectRatio="xMidYMid meet" viewBox="27.265000000000008 1.7720468128807099 23.844656374238596 23.84465637423859" width="19.84" height="19.84">
	<g>
		<path d="M45.88 16.17L47.88 18.17C47.88 10.27 47.88 5.88 47.88 5C47.88 3.9 46.98 3 45.88 3C45 3 40.61 3 32.71 3L34.71 5L45.88 5L45.88 16.17Z" id="b1rEEztkyG">
		</path>
		<path d="M33.88 10L35.88 10L35.88 17L33.88 17L33.88 10Z" id="e1XW8sg4b0">
		</path>
		<path d="M37.88 7L39.88 7L39.88 17L37.88 17L37.88 7Z" id="aY4DlejHf">
		</path>
		<path d="M41.88 13L43.88 13L43.88 17L41.88 17L41.88 13Z" id="b181JrKUEi">
		</path>
		<path d="M31.9 7.8L29.9 5.8C29.9 13.7 29.9 18.09 29.9 18.97C29.9 20.07 30.8 20.97 31.9 20.97C32.78 20.97 37.17 20.97 45.07 20.97L43.07 18.97L31.9 18.97L31.9 7.8Z" id="aaiHGIvGa">
		</path>
		<path d="M28.27 4.19L29.68 2.77L48.11 21.2L46.7 22.62L28.27 4.19Z" id="b1Q8ah7YL">
		</path>
	</g>
</svg>
