<svg xmlns="http://www.w3.org/2000/svg" version="1.1" xmlns:xlink="http://www.w3.org/1999/xlink" xmlns:svgjs="http://svgjs.com/svgjs" viewBox="0 0 64 64">
	<g transform="matrix(-1.8369701987210297e-16,-1,1,-1.8369701987210297e-16,-3.552713678800501e-15,64)">
		<path d="M35.56 22.87a3.135 3.135 0 1 1-3.13-3.13 3.137 3.137 0 0 1 3.13 3.13z">
		</path>
		<path d="M32 6a26 26 0 1 0 26 26A26 26 0 0 0 32 6zm2.43 23.72v16.54a1.995 1.995 0 0 1-3.97.29h-4.02a2 2 0 0 1 0-4h3.99v-1.7h-2.57a2 2 0 1 1 0-4h2.57v-7.13a7.13 7.13 0 1 1 4 0z">
		</path>
	</g>
</svg>
