<svg xmlns="http://www.w3.org/2000/svg" version="1.1" xmlns:xlink="http://www.w3.org/1999/xlink" xmlns:svgjs="http://svgjs.com/svgjs" x="0" y="0" width="512" height="512" viewBox="-45 -35 592 592">
	<g>
		<path d="M440.2 180.9c-8.3-8.5-19.8-13.3-31.7-13.1H189.4v-46.7c0-18.6 6.4-34.1 19.5-47.2s28.5-19.5 47.2-19.5 34.1 6.4 47.2 19.5 19.5 28.5 19.5 47.2c0 3.8 3.1 6.9 6.9 6.9h40.6c3.8 0 6.9-3.1 6.9-6.9 0-33.4-11.9-62.2-35.4-85.7S289.4 0 256 0s-62.2 11.9-85.7 35.4-35.4 52.3-35.4 85.7v46.7h-31.4c-11.9-.2-23.4 4.5-31.7 13.1-8.5 8.3-13.3 19.8-13.1 31.7v254.6c-.2 11.9 4.5 23.4 13.1 31.7 8.3 8.5 19.8 13.3 31.7 13.1h305c24.7.1 44.7-19.9 44.8-44.5V212.6c.2-11.9-4.5-23.4-13.1-31.7zM256 396.3c-29.4 0-53.2-23.8-53.2-53.2s23.8-53.2 53.2-53.2 53.2 23.8 53.2 53.2-23.8 53.2-53.2 53.2z">
		</path>
	</g>
</svg>
