<svg
  xmlns="http://www.w3.org/2000/svg"
  width="512"
  height="512"
  viewBox="0 0 512 512"
>
  <g>
		<path
			d="m37 247h90v-90h30v90h90v-98.789l15 15 21.211-21.211-141.211-142-142 142.789 21.211 21.211 15.789-15.789z"
		></path>
		<path
			d="m91.699 352.91 14.301 14.301 21.211-21.211-51.211-51.211-51.211 51.211 21.211 21.211 15.569-15.569c3.031 71.779 61.919 129.358 134.431 129.358h15v-30h-15c-55.525 0-100.666-43.466-104.301-98.09z"
		></path>
		<path
			d="m421 136v23.789l-15-15-21.211 21.211 51.211 51.211 51.211-51.211-21.211-21.211-15 15v-23.789c0-57.891-47.109-105-105-105h-45v30h45c41.353 0 75 33.647 75 75z"
		></path>
		<path
			d="m266 512h90v-90h30v90h90v-98.789l14.789 14.789 21.211-21.211c-3.808-3.808-144.001-144.001-141-141-3.009 3.009-146.375 146.375-141.211 141.211l21.211 21.211 15-15z"
		></path>
  </g>
</svg>
