<svg xmlns="http://www.w3.org/2000/svg" version="1.1" xmlns:xlink="http://www.w3.org/1999/xlink" width="512" height="512" x="0" y="0" viewBox="0 0 68 68">
	<g transform="matrix(6.124356352260766e-17,0.9998167388604713,-1.0001832947303297,6.122111844897107e-17,68.00623202083122,0.006230878743998858)">
		<path xmlns="http://www.w3.org/2000/svg" d="m180 60v12c0 1.1045695-.895431 2-2 2s-2-.8954305-2-2v-14c0-1.1045695.895431-2 2-2h14c1.104569 0 2 .8954305 2 2s-.895431 2-2 2zm60 0h-12c-1.104569 0-2-.8954305-2-2s.895431-2 2-2h14c1.104569 0 2 .8954305 2 2v14c0 1.1045695-.895431 2-2 2s-2-.8954305-2-2zm-60 60h12c1.104569 0 2 .895431 2 2s-.895431 2-2 2h-14c-1.104569 0-2-.895431-2-2v-14c0-1.104569.895431-2 2-2s2 .895431 2 2zm60 0v-12c0-1.104569.895431-2 2-2s2 .895431 2 2v14c0 1.104569-.895431 2-2 2h-14c-1.104569 0-2-.895431-2-2s.895431-2 2-2zm-13.267629-19.999445c.769231 1.333333-.193055 2.999445-1.732371 2.999445h-30c-1.539316 0-2.501602-1.666112-1.732371-2.999445l15-25.9999999c.769658-1.3340735 2.695084-1.3340735 3.464742 0z" transform="translate(-176 -56)">
		</path>
	</g>
</svg>
