<svg xmlns="http://www.w3.org/2000/svg" version="1.1" xmlns:xlink="http://www.w3.org/1999/xlink" width="512" height="512" x="0" y="0" viewBox="0 0 48 48">
		<g>
			<path d="m26.29 45.68c-.7.46.37.32-18.29.32a2 2 0 0 1 -2-2v-34a2 2 0 0 1 2-2h3v-2h-3a4 4 0 0 0 -4 4v34a4 4 0 0 0 4 4h20.69a10.57 10.57 0 0 1 -2.4-2.32z">
			</path>
			<path d="m34 10v18.05a9.55 9.55 0 0 1 2 0v-18.05a4 4 0 0 0 -4-4h-3v2h3a2 2 0 0 1 2 2z">
			</path>
			<path d="m11 10h-3v34h17.21a11 11 0 0 1 6.79-15.58v-18.42h-3v1a3 3 0 0 1 -3 3h-12a3 3 0 0 1 -3-3zm7.71 27.71c-5.43 5.43-4.17 5.25-7.42 2a1 1 0 0 1 1.42-1.42l1.29 1.3 3.29-3.3a1 1 0 0 1 1.42 1.42zm0-10c-5.43 5.43-4.17 5.25-7.42 2a1 1 0 0 1 1.42-1.42l1.29 1.3 3.29-3.3a1 1 0 0 1 1.42 1.42zm2-9.71h4.5c1 0 1 2 0 2h-4.5c-.95 0-.95-2 .04-2zm0 11h4.5c1 0 1 2 0 2h-4.5c-.95 0-.95-2 .04-2zm-8-10.71 1.29 1.3 3.29-3.3a1 1 0 0 1 1.42 1.42l-4 4a1 1 0 0 1 -1.42 0l-2-2a1 1 0 0 1 1.42-1.42z">
			</path>
			<path d="m14 12h12a1 1 0 0 0 1-1v-5h-4c0-1.19.1-2.14-.88-3.12a3 3 0 0 0 -5.12 2.12v1h-4v5a1 1 0 0 0 1 1z">
			</path>
			<path d="m36 30.06a9 9 0 0 0 -8.48 13.94c4.93 7.38 16.48 3.87 16.48-5a9 9 0 0 0 -8-8.94zm.29 11.65c-2.15-2.15-2.29-2.16-2.29-2.71v-5a1 1 0 0 1 2 0v4.59l1.71 1.7a1 1 0 0 1 -1.42 1.42z">
			</path>
		</g>
</svg>
